<svg width="230" height="60" viewBox="0 0 230 60" fill="none" xmlns="http://www.w3.org/2000/svg">
<g clip-path="url(#clip0_3284_2072)">
<path d="M15.6181 30.0351L0 40.1726L0.556972 46.8941L12.4061 39.0234L1.62652 59.9996L10.5239 58.7251L26.0344 28.543L15.6181 30.0351Z" fill="white"/>
<path d="M56.025 25.3287L56.0136 25.3234C54.4308 24.61 51.5282 24.6922 44.9239 25.6386C39.3246 26.4409 35.7601 27.2405 33.3661 28.2328C31.0958 29.1738 29.3287 30.41 27.6376 32.2416C25.9788 34.0375 24.3725 36.4363 22.4264 40.0207C19.8272 44.8298 17.7534 49.1882 17.0141 51.395C16.521 52.8669 16.3704 54.0195 16.554 54.9181C16.7477 55.8646 17.2953 56.516 18.229 56.9094L18.2451 56.9154C19.581 57.4233 21.9973 57.2792 29.0179 56.2734C34.8587 55.4368 37.5985 54.9114 39.8715 54.1926C43.214 53.1565 46.1953 50.8419 48.4891 47.5034C51.2067 43.5761 55.7607 34.7515 57.0387 30.9374C58.0592 27.8906 57.7464 26.16 56.025 25.3274V25.3287ZM47.133 34.93C46.6426 36.3938 43.8867 41.8119 42.5924 43.857C41.1058 46.1474 39.6502 47.0029 33.471 47.8881C30.6471 48.2922 27.5946 48.6661 27.123 47.9716C27.0336 47.8402 26.9683 47.5795 27.2562 46.7207C27.9753 44.5751 31.0884 38.7435 32.3813 37.1214L32.3914 37.1079C33.621 35.5181 35.1561 34.6673 41.0029 33.83C44.0844 33.3888 46.013 33.2945 46.5626 33.3975C47.3368 33.5653 47.47 33.925 47.133 34.9307V34.93Z" fill="white"/>
<path d="M87.5097 27.6797L76.8398 29.2082L70.8672 34.7192L70.2362 30.1539L60.0008 31.6198L62.5267 40.5946L48.0898 53.3451L58.4914 51.8551L66.0307 44.6788L66.8251 50.6614L76.7127 49.2454L74.3462 39.0398L87.5097 27.6797Z" fill="white"/>
<path d="M125.846 15.7309C124.568 14.8464 122.398 14.7414 118.107 15.3557L95.8405 18.5454L80.3301 48.7275L104.195 45.3088C107.021 44.904 108.29 44.6305 109.846 44.0889C113.14 42.9794 116.775 39.8854 119.108 36.206C121.73 32.0854 125.613 24.4154 126.662 21.285C127.56 18.6053 127.286 16.7367 125.846 15.7309H125.846ZM105.674 37.3088L93.8575 39.0016L100.58 25.9331L113.126 24.1359C114.859 23.8873 115.832 23.9587 116.101 24.3534C116.212 24.5178 116.316 24.8708 115.927 26.0308C115.594 27.0251 114.899 28.5185 113.8 30.596C112.142 33.7338 111.174 35.0777 109.959 35.9238C108.861 36.6978 108.242 36.9416 105.674 37.3094V37.3088Z" fill="white"/>
<path d="M192.105 4.7549L171.821 26.7477L172.907 7.50534L163.341 8.87551L163.008 8.92334L133.897 13.0931L118.387 43.2753L148.134 39.0146L152.271 30.9512L131.611 33.9104L133.389 30.4446L152.649 27.6861L156.37 20.4364L137.115 23.1949L138.843 19.8551L159.203 16.9389L162.979 9.58081L161.719 37.0684L172.363 35.544L202.613 3.25L192.105 4.7549Z" fill="white"/>
<path d="M228.351 0.335602C226.65 -0.228229 224.77 -0.122469 217.172 0.966123C211.86 1.72666 208.72 2.35987 206.333 3.15139C203.874 3.96649 202.117 5.00051 200.457 6.60915C198.32 8.67519 195.668 13.0834 194.545 16.4361C193.449 19.7086 194.877 20.7898 196.273 21.1212C197.439 21.3867 199.593 21.2789 203.052 20.7838L210.008 19.7874C212.589 19.4434 214.064 19.3224 214.431 19.4244L214.441 19.4271C214.656 19.4823 214.593 19.8178 214.501 20.0899C214.059 21.4082 213.34 22.292 210.968 22.9057C210.053 23.1469 206.903 23.6817 203.64 24.1486C201.548 24.4483 199.69 24.5797 199.16 24.5305C198.848 24.4948 198.838 24.3554 198.932 24.0758C199.05 23.7228 199.158 23.4817 199.525 22.7103L200.031 21.648L191.042 22.9353L190.785 23.4082C189.572 25.6373 189.117 26.6154 188.667 27.96C187.756 30.6788 188.557 32.2032 191.048 32.4902L191.057 32.4915C192.97 32.6781 195.056 32.4915 201.681 31.543C207.335 30.7333 210.638 30.0725 213.083 29.2621C215.605 28.4261 217.393 27.3524 219.059 25.6716C221.247 23.4668 223.655 19.4176 224.785 16.0441C225.618 13.5557 225.26 11.9874 223.719 11.3832C222.706 10.9083 221.728 10.9191 218.919 11.2C216.997 11.398 215.672 11.5455 215.188 11.6149L208.046 12.6382L208.033 12.6395C205.216 12.9696 205.2 12.9709 204.873 12.7264C204.799 12.6638 204.802 12.4671 204.883 12.2239C205.303 10.9703 206.324 10.0353 207.61 9.72403C208.804 9.43909 212.198 8.83147 215.347 8.38081C216.999 8.14436 217.992 8.0413 218.668 8.03726C219.459 8.03254 219.595 8.17333 219.615 8.20162C219.626 8.21712 219.632 8.32086 219.536 8.60782C219.475 8.79038 219.308 9.13999 219.153 9.45728L218.628 10.5317L227.553 9.25316L227.811 8.78364C228.708 7.15075 229.208 6.06486 229.594 4.9116C230.629 1.82164 229.489 0.718226 228.348 0.335602H228.351Z" fill="white"/>
</g>
<defs>
<clipPath id="clip0_3284_2072">
<rect width="230" height="60" fill="white"/>
</clipPath>
</defs>
</svg>
